<svg  viewBox="0 0 25 24" fill="currentColor" xmlns="http://www.w3.org/2000/svg">
<path fill-rule="evenodd" clip-rule="evenodd" d="M12.2098 0C5.45607 0 -0.00366211 5.49998 -0.00366211 12.3042C-0.00366211 17.7432 3.49457 22.3472 8.34755 23.9767C8.9543 24.0991 9.17655 23.7119 9.17655 23.3862C9.17655 23.1009 9.15655 22.1232 9.15655 21.1044C5.75906 21.8379 5.05157 19.6377 5.05157 19.6377C4.50557 18.2117 3.69657 17.8452 3.69657 17.8452C2.58458 17.0914 3.77757 17.0914 3.77757 17.0914C5.01107 17.1729 5.65831 18.3544 5.65831 18.3544C6.75006 20.2284 8.5093 19.6989 9.21705 19.3729C9.31805 18.5784 9.6418 18.0284 9.98555 17.7229C7.27581 17.4377 4.42482 16.3784 4.42482 11.6522C4.42482 10.3077 4.90982 9.20771 5.67831 8.35222C5.55707 8.04672 5.13232 6.78347 5.79981 5.09273C5.79981 5.09273 6.83106 4.76673 9.1563 6.35572C10.1518 6.08639 11.1785 5.94938 12.2098 5.94823C13.241 5.94823 14.2923 6.09097 15.263 6.35572C17.5885 4.76673 18.6198 5.09273 18.6198 5.09273C19.2873 6.78347 18.8623 8.04672 18.741 8.35222C19.5298 9.20771 19.9948 10.3077 19.9948 11.6522C19.9948 16.3784 17.1438 17.4172 14.4138 17.7229C14.8588 18.1099 15.2428 18.8432 15.2428 20.0044C15.2428 21.6544 15.2228 22.9787 15.2228 23.3859C15.2228 23.7119 15.4453 24.0991 16.0518 23.9769C20.9048 22.3469 24.403 17.7432 24.403 12.3042C24.423 5.49998 18.9433 0 12.2098 0Z" />
</svg>
