<svg  viewBox="0 0 25 24" fill="currentColor" xmlns="http://www.w3.org/2000/svg">
<g clip-path="url(#clip0_188_2957)">
<path d="M12.4028 9.81812V14.4654H18.861C18.5774 15.9599 17.7264 17.2254 16.4501 18.0763L20.3446 21.0982C22.6137 19.0037 23.9228 15.9273 23.9228 12.2728C23.9228 11.4219 23.8464 10.6036 23.7046 9.81825L12.4028 9.81812Z" />
<path d="M5.67769 14.2841L4.79933 14.9564L1.69019 17.3782C3.66473 21.2945 7.7117 24 12.4026 24C15.6425 24 18.3588 22.9309 20.3443 21.0983L16.4498 18.0764C15.3807 18.7964 14.017 19.2328 12.4026 19.2328C9.28259 19.2328 6.63176 17.1274 5.6826 14.291L5.67769 14.2841Z" />
<path d="M1.69026 6.62183C0.872118 8.23631 0.403076 10.0581 0.403076 11.9999C0.403076 13.9417 0.872118 15.7636 1.69026 17.378C1.69026 17.3889 5.68305 14.2799 5.68305 14.2799C5.44305 13.5599 5.30119 12.7963 5.30119 11.9998C5.30119 11.2033 5.44305 10.4398 5.68305 9.71976L1.69026 6.62183Z" />
<path d="M12.4028 4.77818C14.1701 4.77818 15.741 5.38907 16.9955 6.56727L20.4319 3.13095C18.3482 1.18917 15.6429 0 12.4028 0C7.71195 0 3.66473 2.69454 1.69019 6.62183L5.68286 9.72001C6.63189 6.88362 9.28283 4.77818 12.4028 4.77818Z" />
</g>
<defs>
<clipPath id="clip0_188_2957">
<rect width="24" height="24"  transform="translate(0.403076)"/>
</clipPath>
</defs>
</svg>
