<svg  viewBox="0 0 24 18" fill="currentColor" xmlns="http://www.w3.org/2000/svg">
<path fill-rule="evenodd" clip-rule="evenodd" d="M16.67 10.13C18.04 11.06 19 12.32 19 14V17H22C22.55 17 23 16.55 23 16V14C23 11.82 19.43 10.53 16.67 10.13Z" />
<path d="M9 9C11.2091 9 13 7.20914 13 5C13 2.79086 11.2091 1 9 1C6.79086 1 5 2.79086 5 5C5 7.20914 6.79086 9 9 9Z" />
<path fill-rule="evenodd" clip-rule="evenodd" d="M15 9C17.21 9 19 7.21 19 5C19 2.79 17.21 1 15 1C14.53 1 14.09 1.1 13.67 1.24C14.5 2.27 15 3.58 15 5C15 6.42 14.5 7.73 13.67 8.76C14.09 8.9 14.53 9 15 9Z" />
<path fill-rule="evenodd" clip-rule="evenodd" d="M9 10C6.33 10 1 11.34 1 14V16C1 16.55 1.45 17 2 17H16C16.55 17 17 16.55 17 16V14C17 11.34 11.67 10 9 10Z" />
</svg>
