<svg  viewBox="0 0 22 24" fill="currentColor" xmlns="http://www.w3.org/2000/svg">
<path d="M17.25 14.2575L13.5 14.25C13.0875 14.25 12.75 14.5875 12.75 15V21.75C12.75 22.1625 13.0875 22.5 13.5 22.5H17.25C17.6625 22.5 18 22.1625 18 21.75V15C18 14.5875 17.6625 14.2575 17.25 14.2575ZM17.25 21H13.5V15.75H17.25V21ZM15 7.5H1.5C0.6675 7.5 0 8.1675 0 9V18C0 18.825 0.6675 19.5 1.5 19.5H6.75V21H5.25V22.5H11.25V21H9.75V19.5H11.25V18H1.5V9H15V12.75H16.5V9C16.5 8.1675 15.825 7.5 15 7.5ZM8.9775 12.75L8.25 10.5L7.5225 12.75H5.25L7.1025 14.07L6.3975 16.2525L8.25 14.9025L10.1025 16.2525L9.3975 14.07L11.25 12.75H8.9775Z" fill="#323232"/>
<path d="M21.7418 5.82274C20.9566 3.63399 18.161 3.51597 18.8361 0.334775C18.8861 0.0987332 18.6511 -0.0836624 18.461 0.0397229C16.6456 1.18774 15.3403 3.48915 16.4356 6.50404C16.5256 6.75081 16.2555 6.98149 16.0605 6.82055C15.1553 6.0856 15.0602 5.02878 15.1403 4.27237C15.1703 3.99342 14.8302 3.8593 14.6852 4.08998C14.3451 4.64789 14 5.54914 14 6.90638C14.19 9.91054 16.5556 10.8333 17.4058 10.9513C18.6211 11.1176 19.9364 10.8762 20.8816 9.9481C21.9218 8.91273 22.3019 7.26044 21.7418 5.82274ZM17.1007 8.52112C17.8209 8.33336 18.191 7.77544 18.291 7.2819C18.456 6.51477 17.8109 5.76373 18.246 4.55133C18.411 5.55451 19.8814 6.18216 19.8814 7.27654C19.9214 8.63378 18.5511 9.79789 17.1007 8.52112Z" />
</svg>
