<svg  viewBox="0 0 23 20" fill="currentColor" xmlns="http://www.w3.org/2000/svg">
<path d="M4.00003 11.18V13.99C4.00003 14.72 4.40003 15.4 5.04003 15.75L10.04 18.48C10.64 18.81 11.36 18.81 11.96 18.48L16.96 15.75C17.6 15.4 18 14.72 18 13.99V11.18L11.96 14.48C11.36 14.81 10.64 14.81 10.04 14.48L4.00003 11.18ZM10.04 1.52003L1.61003 6.12003C0.920029 6.50003 0.920029 7.50003 1.61003 7.88003L10.04 12.48C10.64 12.81 11.36 12.81 11.96 12.48L20 8.09003V14C20 14.55 20.45 15 21 15C21.55 15 22 14.55 22 14V7.59003C22 7.22003 21.8 6.89003 21.48 6.71003L11.96 1.52003C11.36 1.20003 10.64 1.20003 10.04 1.52003V1.52003Z" />
</svg>
